{
	"asset":{
		"generator":"Khronos glTF Blender I/O v4.0.44",
		"version":"2.0"
	},
	"scene":0,
	"scenes":[
		{
			"name":"Scene",
			"nodes":[
				0,
				1,
				2,
				3,
				4,
				5,
				6,
				7,
				8,
				9,
				10,
				11,
				12,
				13,
				14,
				15,
				16,
				17,
				18,
				19,
				20,
				21,
				22,
				23,
				24,
				25,
				26,
				27,
				28,
				29,
				30,
				31,
				32
			]
		}
	],
	"nodes":[
		{
			"mesh":0,
			"name":"planHop",
			"translation":[
				-90.71758270263672,
				2,
				-3.3718433380126953
			]
		},
		{
			"mesh":1,
			"name":"Surface Sol",
			"scale":[
				1.0526316165924072,
				1,
				0.7263157963752747
			]
		},
		{
			"mesh":2,
			"name":"Reseau_Navigation",
			"translation":[
				-2.5262222290039062,
				1.7042579650878906,
				-2.699810028076172
			]
		},
		{
			"name":"Objet vide",
			"scale":[
				39.91768264770508,
				39.91768264770508,
				39.91768264770508
			],
			"translation":[
				-89.01216125488281,
				0.002328039612621069,
				1.5821866989135742
			]
		},
		{
			"name":"POI_Accueil",
			"translation":[
				-0.0030176639556884766,
				1.7042579650878906,
				-0.0008037090301513672
			]
		},
		{
			"name":"POI_Cons1",
			"translation":[
				-2.6036570072174072,
				1.7042579650878906,
				-25.08821678161621
			]
		},
		{
			"name":"POI_Cons2",
			"translation":[
				-2.617168664932251,
				1.7042579650878906,
				-33.05939483642578
			]
		},
		{
			"name":"POI_Reedu1",
			"translation":[
				-19.748783111572266,
				1.7042579650878906,
				-42.76565933227539
			]
		},
		{
			"name":"POI_Reedu2",
			"translation":[
				-26.721553802490234,
				1.7042579650878906,
				-42.712215423583984
			]
		},
		{
			"name":"POI_Radiologie",
			"translation":[
				-55.74397659301758,
				1.7042579650878906,
				-42.59502029418945
			]
		},
		{
			"name":"POI_HopJour",
			"translation":[
				-88.1650619506836,
				1.7042579650878906,
				-42.681217193603516
			]
		},
		{
			"name":"POI_Urgences.002",
			"translation":[
				-115.90991973876953,
				1.7042579650878906,
				-45.144004821777344
			]
		},
		{
			"name":"POI_Urgences.001",
			"translation":[
				-120.69029235839844,
				1.7042579650878906,
				-7.436211585998535
			]
		},
		{
			"name":"POI_Urgences",
			"translation":[
				-140.23074340820312,
				1.7042579650878906,
				-23.925884246826172
			]
		},
		{
			"name":"POI_Urgences.003",
			"translation":[
				-115.96833038330078,
				1.7042579650878906,
				-12.930038452148438
			]
		},
		{
			"name":"POI_HopJour.001",
			"translation":[
				-88.18104553222656,
				1.7042579650878906,
				-14.092594146728516
			]
		},
		{
			"name":"POI_Radiologie.001",
			"translation":[
				-55.74650192260742,
				1.7042579650878906,
				-25.377710342407227
			]
		},
		{
			"name":"POI_Reedu",
			"translation":[
				-23.21871566772461,
				1.7042579650878906,
				-7.468748569488525
			]
		},
		{
			"name":"POI_Administration",
			"translation":[
				-12.122875213623047,
				1.7042579650878906,
				16.06328773498535
			]
		},
		{
			"name":"POI_Pediatrie",
			"translation":[
				-42.98226547241211,
				1.7042579650878906,
				1.2460143566131592
			]
		},
		{
			"name":"POI_Pediatrie.001",
			"translation":[
				-35.96566390991211,
				1.7042579650878906,
				1.2460143566131592
			]
		},
		{
			"name":"POI_Pediatrie.002",
			"translation":[
				-35.97294235229492,
				1.7042579650878906,
				40.789039611816406
			]
		},
		{
			"name":"POI_Pediatrie.003",
			"translation":[
				-43.040287017822266,
				1.7042579650878906,
				40.69283676147461
			]
		},
		{
			"name":"POI_Hospitalisation1",
			"translation":[
				-75.46398162841797,
				1.7042579650878906,
				1.370819091796875
			]
		},
		{
			"name":"POI_Hospitalisation1.001",
			"translation":[
				-68.42967224121094,
				1.7042579650878906,
				1.2758705615997314
			]
		},
		{
			"name":"POI_Hospitalisation1.002",
			"translation":[
				-68.4517822265625,
				1.7042579650878906,
				49.32511520385742
			]
		},
		{
			"name":"POI_Hospitalisation1.003",
			"translation":[
				-75.54582977294922,
				1.7042579650878906,
				49.38078689575195
			]
		},
		{
			"name":"POI_Hospitalisation2",
			"translation":[
				-107.94798278808594,
				1.7042579650878906,
				1.24601149559021
			]
		},
		{
			"name":"POI_Hospitalisation2.001",
			"translation":[
				-100.85675048828125,
				1.7042579650878906,
				1.4699459075927734
			]
		},
		{
			"name":"POI_Hospitalisation2.002",
			"translation":[
				-100.98818969726562,
				1.7042579650878906,
				49.38079071044922
			]
		},
		{
			"name":"POI_Hospitalisation2.003",
			"translation":[
				-108.06368255615234,
				1.7042579650878906,
				49.49213409423828
			]
		},
		{
			"mesh":3,
			"name":"pedi",
			"rotation":[
				0.4133513271808624,
				0.3876873254776001,
				-0.20052897930145264,
				0.7991416454315186
			],
			"scale":[
				12.297772407531738,
				12.297772407531738,
				12.297772407531738
			],
			"translation":[
				-41.52739334106445,
				7.12523078918457,
				20.955076217651367
			]
		},
		{
			"name":"TextureField",
			"translation":[
				-39.46495819091797,
				2.111644744873047,
				23.95496940612793
			]
		}
	],
	"materials":[
		{
			"doubleSided":true,
			"name":"Mur-blanc",
			"pbrMetallicRoughness":{
				"baseColorFactor":[
					0.024071231484413147,
					0.015766838565468788,
					0.05556447431445122,
					1
				],
				"metallicFactor":0,
				"roughnessFactor":0.5
			}
		},
		{
			"doubleSided":true,
			"name":"Sol_Urgences",
			"pbrMetallicRoughness":{
				"baseColorFactor":[
					1,
					0.234540194272995,
					0.2345336526632309,
					1
				],
				"metallicFactor":0,
				"roughnessFactor":0.5
			}
		},
		{
			"doubleSided":true,
			"name":"Sol_hopitalisatio",
			"pbrMetallicRoughness":{
				"baseColorFactor":[
					1,
					0.4507661461830139,
					0.2158450037240982,
					1
				],
				"metallicFactor":0,
				"roughnessFactor":0.5
			}
		},
		{
			"doubleSided":true,
			"name":"Sol_Admin",
			"pbrMetallicRoughness":{
				"baseColorFactor":[
					0.6725562810897827,
					0.3662363290786743,
					0.9999274611473083,
					1
				],
				"metallicFactor":0,
				"roughnessFactor":0.5
			}
		},
		{
			"doubleSided":true,
			"name":"Sol_HopJour",
			"pbrMetallicRoughness":{
				"baseColorFactor":[
					0.3005938231945038,
					0.7453718781471252,
					0.31852391362190247,
					1
				],
				"metallicFactor":0,
				"roughnessFactor":0.5
			}
		},
		{
			"doubleSided":true,
			"name":"Sol_Radiologie",
			"pbrMetallicRoughness":{
				"baseColorFactor":[
					0.2015891969203949,
					0.6724138259887695,
					0.9999275207519531,
					1
				],
				"metallicFactor":0,
				"roughnessFactor":0.5
			}
		},
		{
			"doubleSided":true,
			"name":"Sol_Consultation",
			"pbrMetallicRoughness":{
				"baseColorFactor":[
					0.6725562810897827,
					0.3662363290786743,
					0.9999274611473083,
					1
				],
				"metallicFactor":0,
				"roughnessFactor":0.5
			}
		},
		{
			"doubleSided":true,
			"name":"Sol_Pediare/Reeducation",
			"pbrMetallicRoughness":{
				"baseColorFactor":[
					1,
					0.6653584837913513,
					0.1620178520679474,
					1
				],
				"metallicFactor":0,
				"roughnessFactor":0.5
			}
		},
		{
			"doubleSided":true,
			"name":"Sol_Morgue",
			"pbrMetallicRoughness":{
				"baseColorFactor":[
					0.4020451605319977,
					0.4735108017921448,
					0.47928550839424133,
					1
				],
				"metallicFactor":0,
				"roughnessFactor":0.5
			}
		},
		{
			"doubleSided":true,
			"name":"Sol_hop",
			"pbrMetallicRoughness":{
				"metallicFactor":0,
				"roughnessFactor":0.20886075496673584
			}
		},
		{
			"alphaMode":"BLEND",
			"doubleSided":true,
			"name":"pedi",
			"pbrMetallicRoughness":{
				"baseColorTexture":{
					"index":0
				},
				"metallicFactor":0,
				"roughnessFactor":0.5
			}
		}
	],
	"meshes":[
		{
			"name":"Plane",
			"primitives":[
				{
					"attributes":{
						"POSITION":0,
						"NORMAL":1,
						"TEXCOORD_0":2
					},
					"indices":3,
					"material":0
				},
				{
					"attributes":{
						"POSITION":4,
						"NORMAL":5,
						"TEXCOORD_0":6
					},
					"indices":7,
					"material":1
				},
				{
					"attributes":{
						"POSITION":8,
						"NORMAL":9,
						"TEXCOORD_0":10
					},
					"indices":11,
					"material":2
				},
				{
					"attributes":{
						"POSITION":12,
						"NORMAL":13,
						"TEXCOORD_0":14
					},
					"indices":15,
					"material":3
				},
				{
					"attributes":{
						"POSITION":16,
						"NORMAL":17,
						"TEXCOORD_0":18
					},
					"indices":19,
					"material":4
				},
				{
					"attributes":{
						"POSITION":20,
						"NORMAL":21,
						"TEXCOORD_0":22
					},
					"indices":23,
					"material":5
				},
				{
					"attributes":{
						"POSITION":24,
						"NORMAL":25,
						"TEXCOORD_0":26
					},
					"indices":27,
					"material":6
				},
				{
					"attributes":{
						"POSITION":28,
						"NORMAL":29,
						"TEXCOORD_0":30
					},
					"indices":31,
					"material":7
				},
				{
					"attributes":{
						"POSITION":32,
						"NORMAL":33,
						"TEXCOORD_0":34
					},
					"indices":35,
					"material":8
				}
			]
		},
		{
			"name":"Plane.001",
			"primitives":[
				{
					"attributes":{
						"POSITION":36,
						"NORMAL":37,
						"TEXCOORD_0":38
					},
					"indices":39,
					"material":9
				}
			]
		},
		{
			"name":"Plane.002",
			"primitives":[
				{
					"attributes":{
						"POSITION":40,
						"NORMAL":41,
						"TEXCOORD_0":42
					},
					"indices":43
				}
			]
		},
		{
			"name":"pedi",
			"primitives":[
				{
					"attributes":{
						"POSITION":44,
						"NORMAL":45,
						"TEXCOORD_0":46
					},
					"indices":47,
					"material":10
				}
			]
		}
	],
	"textures":[
		{
			"sampler":0,
			"source":0
		}
	],
	"images":[
		{
			"mimeType":"image/png",
			"name":"pedi",
			"uri":"pedi.png"
		}
	],
	"accessors":[
		{
			"bufferView":0,
			"componentType":5126,
			"count":2198,
			"max":[
				94.21253204345703,
				0.43343544006347656,
				68.92635345458984
			],
			"min":[
				-89.90135955810547,
				-2.2957992553710938,
				-59.892051696777344
			],
			"type":"VEC3"
		},
		{
			"bufferView":1,
			"componentType":5126,
			"count":2198,
			"type":"VEC3"
		},
		{
			"bufferView":2,
			"componentType":5126,
			"count":2198,
			"type":"VEC2"
		},
		{
			"bufferView":3,
			"componentType":5123,
			"count":3576,
			"type":"SCALAR"
		},
		{
			"bufferView":4,
			"componentType":5126,
			"count":92,
			"max":[
				-19.637054443359375,
				-0.002277851104736328,
				-10.427071571350098
			],
			"min":[
				-53.77302932739258,
				-0.29579925537109375,
				-56.75284957885742
			],
			"type":"VEC3"
		},
		{
			"bufferView":5,
			"componentType":5126,
			"count":92,
			"type":"VEC3"
		},
		{
			"bufferView":6,
			"componentType":5126,
			"count":92,
			"type":"VEC2"
		},
		{
			"bufferView":7,
			"componentType":5123,
			"count":231,
			"type":"SCALAR"
		},
		{
			"bufferView":8,
			"componentType":5126,
			"count":34,
			"max":[
				30.10146141052246,
				0.11159706115722656,
				54.04288101196289
			],
			"min":[
				-25.216045379638672,
				0.11159612238407135,
				4.63874626159668
			],
			"type":"VEC3"
		},
		{
			"bufferView":9,
			"componentType":5126,
			"count":34,
			"type":"VEC3"
		},
		{
			"bufferView":10,
			"componentType":5126,
			"count":34,
			"type":"VEC2"
		},
		{
			"bufferView":11,
			"componentType":5123,
			"count":54,
			"type":"SCALAR"
		},
		{
			"bufferView":12,
			"componentType":5126,
			"count":12,
			"max":[
				91.29096984863281,
				0.11159612238407135,
				53.909114837646484
			],
			"min":[
				72.38740539550781,
				-0.29579925537109375,
				-3.1002197265625
			],
			"type":"VEC3"
		},
		{
			"bufferView":13,
			"componentType":5126,
			"count":12,
			"type":"VEC3"
		},
		{
			"bufferView":14,
			"componentType":5126,
			"count":12,
			"type":"VEC2"
		},
		{
			"bufferView":15,
			"componentType":5123,
			"count":24,
			"type":"SCALAR"
		},
		{
			"bufferView":16,
			"componentType":5126,
			"count":24,
			"max":[
				12.741058349609375,
				-0.040676116943359375,
				-10.75478744506836
			],
			"min":[
				-7.583930969238281,
				-0.29579925537109375,
				-40.180274963378906
			],
			"type":"VEC3"
		},
		{
			"bufferView":17,
			"componentType":5126,
			"count":24,
			"type":"VEC3"
		},
		{
			"bufferView":18,
			"componentType":5126,
			"count":24,
			"type":"VEC2"
		},
		{
			"bufferView":19,
			"componentType":5123,
			"count":45,
			"type":"SCALAR"
		},
		{
			"bufferView":20,
			"componentType":5126,
			"count":29,
			"max":[
				43.32610321044922,
				-0.29579925537109375,
				-10.752996444702148
			],
			"min":[
				26.65807342529297,
				-0.29579925537109375,
				-40.24132537841797
			],
			"type":"VEC3"
		},
		{
			"bufferView":21,
			"componentType":5126,
			"count":29,
			"type":"VEC3"
		},
		{
			"bufferView":22,
			"componentType":5126,
			"count":29,
			"type":"VEC2"
		},
		{
			"bufferView":23,
			"componentType":5123,
			"count":66,
			"type":"SCALAR"
		},
		{
			"bufferView":24,
			"componentType":5126,
			"count":6,
			"max":[
				88.09529113769531,
				-0.29579925537109375,
				-10.909762382507324
			],
			"min":[
				81.07931518554688,
				-0.29579925537109375,
				-40.244956970214844
			],
			"type":"VEC3"
		},
		{
			"bufferView":25,
			"componentType":5126,
			"count":6,
			"type":"VEC3"
		},
		{
			"bufferView":26,
			"componentType":5126,
			"count":6,
			"type":"VEC2"
		},
		{
			"bufferView":27,
			"componentType":5123,
			"count":12,
			"type":"SCALAR"
		},
		{
			"bufferView":28,
			"componentType":5126,
			"count":28,
			"max":[
				77.65290832519531,
				0.11159612238407135,
				44.11058807373047
			],
			"min":[
				39.944358825683594,
				-0.29579925537109375,
				-40.244956970214844
			],
			"type":"VEC3"
		},
		{
			"bufferView":29,
			"componentType":5126,
			"count":28,
			"type":"VEC3"
		},
		{
			"bufferView":30,
			"componentType":5126,
			"count":28,
			"type":"VEC2"
		},
		{
			"bufferView":31,
			"componentType":5123,
			"count":42,
			"type":"SCALAR"
		},
		{
			"bufferView":32,
			"componentType":5126,
			"count":22,
			"max":[
				-53.65706253051758,
				0,
				-2.976053476333618
			],
			"min":[
				-70.97160339355469,
				-0.004067408386617899,
				-20.53366470336914
			],
			"type":"VEC3"
		},
		{
			"bufferView":33,
			"componentType":5126,
			"count":22,
			"type":"VEC3"
		},
		{
			"bufferView":34,
			"componentType":5126,
			"count":22,
			"type":"VEC2"
		},
		{
			"bufferView":35,
			"componentType":5123,
			"count":51,
			"type":"SCALAR"
		},
		{
			"bufferView":36,
			"componentType":5126,
			"count":24,
			"max":[
				10.141656875610352,
				0,
				97.06434631347656
			],
			"min":[
				-179.85833740234375,
				-1.5,
				-92.93565368652344
			],
			"type":"VEC3"
		},
		{
			"bufferView":37,
			"componentType":5126,
			"count":24,
			"type":"VEC3"
		},
		{
			"bufferView":38,
			"componentType":5126,
			"count":24,
			"type":"VEC2"
		},
		{
			"bufferView":39,
			"componentType":5123,
			"count":36,
			"type":"SCALAR"
		},
		{
			"bufferView":40,
			"componentType":5126,
			"count":4,
			"max":[
				-40.4560432434082,
				0,
				-2.2496817111968994
			],
			"min":[
				-65.90345001220703,
				0,
				-2.2496817111968994
			],
			"type":"VEC3"
		},
		{
			"bufferView":41,
			"componentType":5126,
			"count":4,
			"type":"VEC3"
		},
		{
			"bufferView":42,
			"componentType":5126,
			"count":4,
			"type":"VEC2"
		},
		{
			"bufferView":43,
			"componentType":5123,
			"count":6,
			"type":"SCALAR"
		},
		{
			"bufferView":44,
			"componentType":5126,
			"count":4,
			"max":[
				0.37662336230278015,
				0,
				0.5
			],
			"min":[
				-0.37662336230278015,
				0,
				-0.5
			],
			"type":"VEC3"
		},
		{
			"bufferView":45,
			"componentType":5126,
			"count":4,
			"type":"VEC3"
		},
		{
			"bufferView":46,
			"componentType":5126,
			"count":4,
			"type":"VEC2"
		},
		{
			"bufferView":47,
			"componentType":5123,
			"count":6,
			"type":"SCALAR"
		}
	],
	"bufferViews":[
		{
			"buffer":0,
			"byteLength":26376,
			"byteOffset":0,
			"target":34962
		},
		{
			"buffer":0,
			"byteLength":26376,
			"byteOffset":26376,
			"target":34962
		},
		{
			"buffer":0,
			"byteLength":17584,
			"byteOffset":52752,
			"target":34962
		},
		{
			"buffer":0,
			"byteLength":7152,
			"byteOffset":70336,
			"target":34963
		},
		{
			"buffer":0,
			"byteLength":1104,
			"byteOffset":77488,
			"target":34962
		},
		{
			"buffer":0,
			"byteLength":1104,
			"byteOffset":78592,
			"target":34962
		},
		{
			"buffer":0,
			"byteLength":736,
			"byteOffset":79696,
			"target":34962
		},
		{
			"buffer":0,
			"byteLength":462,
			"byteOffset":80432,
			"target":34963
		},
		{
			"buffer":0,
			"byteLength":408,
			"byteOffset":80896,
			"target":34962
		},
		{
			"buffer":0,
			"byteLength":408,
			"byteOffset":81304,
			"target":34962
		},
		{
			"buffer":0,
			"byteLength":272,
			"byteOffset":81712,
			"target":34962
		},
		{
			"buffer":0,
			"byteLength":108,
			"byteOffset":81984,
			"target":34963
		},
		{
			"buffer":0,
			"byteLength":144,
			"byteOffset":82092,
			"target":34962
		},
		{
			"buffer":0,
			"byteLength":144,
			"byteOffset":82236,
			"target":34962
		},
		{
			"buffer":0,
			"byteLength":96,
			"byteOffset":82380,
			"target":34962
		},
		{
			"buffer":0,
			"byteLength":48,
			"byteOffset":82476,
			"target":34963
		},
		{
			"buffer":0,
			"byteLength":288,
			"byteOffset":82524,
			"target":34962
		},
		{
			"buffer":0,
			"byteLength":288,
			"byteOffset":82812,
			"target":34962
		},
		{
			"buffer":0,
			"byteLength":192,
			"byteOffset":83100,
			"target":34962
		},
		{
			"buffer":0,
			"byteLength":90,
			"byteOffset":83292,
			"target":34963
		},
		{
			"buffer":0,
			"byteLength":348,
			"byteOffset":83384,
			"target":34962
		},
		{
			"buffer":0,
			"byteLength":348,
			"byteOffset":83732,
			"target":34962
		},
		{
			"buffer":0,
			"byteLength":232,
			"byteOffset":84080,
			"target":34962
		},
		{
			"buffer":0,
			"byteLength":132,
			"byteOffset":84312,
			"target":34963
		},
		{
			"buffer":0,
			"byteLength":72,
			"byteOffset":84444,
			"target":34962
		},
		{
			"buffer":0,
			"byteLength":72,
			"byteOffset":84516,
			"target":34962
		},
		{
			"buffer":0,
			"byteLength":48,
			"byteOffset":84588,
			"target":34962
		},
		{
			"buffer":0,
			"byteLength":24,
			"byteOffset":84636,
			"target":34963
		},
		{
			"buffer":0,
			"byteLength":336,
			"byteOffset":84660,
			"target":34962
		},
		{
			"buffer":0,
			"byteLength":336,
			"byteOffset":84996,
			"target":34962
		},
		{
			"buffer":0,
			"byteLength":224,
			"byteOffset":85332,
			"target":34962
		},
		{
			"buffer":0,
			"byteLength":84,
			"byteOffset":85556,
			"target":34963
		},
		{
			"buffer":0,
			"byteLength":264,
			"byteOffset":85640,
			"target":34962
		},
		{
			"buffer":0,
			"byteLength":264,
			"byteOffset":85904,
			"target":34962
		},
		{
			"buffer":0,
			"byteLength":176,
			"byteOffset":86168,
			"target":34962
		},
		{
			"buffer":0,
			"byteLength":102,
			"byteOffset":86344,
			"target":34963
		},
		{
			"buffer":0,
			"byteLength":288,
			"byteOffset":86448,
			"target":34962
		},
		{
			"buffer":0,
			"byteLength":288,
			"byteOffset":86736,
			"target":34962
		},
		{
			"buffer":0,
			"byteLength":192,
			"byteOffset":87024,
			"target":34962
		},
		{
			"buffer":0,
			"byteLength":72,
			"byteOffset":87216,
			"target":34963
		},
		{
			"buffer":0,
			"byteLength":48,
			"byteOffset":87288,
			"target":34962
		},
		{
			"buffer":0,
			"byteLength":48,
			"byteOffset":87336,
			"target":34962
		},
		{
			"buffer":0,
			"byteLength":32,
			"byteOffset":87384,
			"target":34962
		},
		{
			"buffer":0,
			"byteLength":12,
			"byteOffset":87416,
			"target":34963
		},
		{
			"buffer":0,
			"byteLength":48,
			"byteOffset":87428,
			"target":34962
		},
		{
			"buffer":0,
			"byteLength":48,
			"byteOffset":87476,
			"target":34962
		},
		{
			"buffer":0,
			"byteLength":32,
			"byteOffset":87524,
			"target":34962
		},
		{
			"buffer":0,
			"byteLength":12,
			"byteOffset":87556,
			"target":34963
		}
	],
	"samplers":[
		{
			"magFilter":9729,
			"minFilter":9987,
			"wrapS":33071,
			"wrapT":33071
		}
	],
	"buffers":[
		{
			"byteLength":87568,
			"uri":"DalalJam.bin"
		}
	]
}
